<svg width="51" height="35" viewBox="0 0 51 35" fill="none" xmlns="http://www.w3.org/2000/svg">
<g clip-path="url(#clip0_35_1367)">
<path d="M50.7808 0.576538H0.780762V34.5765H50.7808V0.576538Z" fill="#003399"/>
<path d="M25.7808 4.35437L25.2085 6.15081L26.0891 6.44266L25.7808 4.35437Z" fill="#FFCC00"/>
<path d="M25.7808 4.35437L26.353 6.15081L25.4724 6.44266L25.7808 4.35437Z" fill="#FFCC00"/>
<path d="M27.5425 5.65955L25.695 5.6684L25.6906 6.60399L27.5425 5.65955Z" fill="#FFCC00"/>
<path d="M27.5425 5.65503L26.0404 6.76978L25.5001 6.01019L27.5425 5.65503Z" fill="#FFCC00"/>
<path d="M26.8696 7.76892L26.3008 5.97497L25.4168 6.26931L26.8696 7.76892Z" fill="#FFCC00"/>
<path d="M26.8672 7.77148L25.3715 6.664L25.9181 5.89715L26.8672 7.77148Z" fill="#FFCC00"/>
<path d="M24.02 5.65955L25.8675 5.6684L25.8719 6.60399L24.02 5.65955Z" fill="#FFCC00"/>
<path d="M24.02 5.65503L25.5221 6.76978L26.0624 6.01019L24.02 5.65503Z" fill="#FFCC00"/>
<path d="M24.6929 7.76892L25.2617 5.97497L26.1457 6.26931L24.6929 7.76892Z" fill="#FFCC00"/>
<path d="M24.6953 7.77148L26.191 6.664L25.6444 5.89715L24.6953 7.77148Z" fill="#FFCC00"/>
<path d="M25.7808 27.021L25.2085 28.8174L26.0891 29.1093L25.7808 27.021Z" fill="#FFCC00"/>
<path d="M25.7808 27.021L26.353 28.8174L25.4724 29.1093L25.7808 27.021Z" fill="#FFCC00"/>
<path d="M27.5425 28.3262L25.695 28.335L25.6906 29.2706L27.5425 28.3262Z" fill="#FFCC00"/>
<path d="M27.5425 28.3217L26.0404 29.4364L25.5001 28.6768L27.5425 28.3217Z" fill="#FFCC00"/>
<path d="M26.8696 30.4355L26.3008 28.6416L25.4168 28.9359L26.8696 30.4355Z" fill="#FFCC00"/>
<path d="M26.8672 30.4381L25.3715 29.3306L25.9181 28.5638L26.8672 30.4381Z" fill="#FFCC00"/>
<path d="M24.02 28.3262L25.8675 28.335L25.8719 29.2706L24.02 28.3262Z" fill="#FFCC00"/>
<path d="M24.02 28.3217L25.5221 29.4364L26.0624 28.6768L24.02 28.3217Z" fill="#FFCC00"/>
<path d="M24.6929 30.4355L25.2617 28.6416L26.1457 28.9359L24.6929 30.4355Z" fill="#FFCC00"/>
<path d="M24.6953 30.4381L26.191 29.3306L25.6444 28.5638L24.6953 30.4381Z" fill="#FFCC00"/>
<path d="M14.6694 15.6877L14.0972 17.4842L14.9778 17.776L14.6694 15.6877Z" fill="#FFCC00"/>
<path d="M14.6694 15.6877L15.2417 17.4842L14.3611 17.776L14.6694 15.6877Z" fill="#FFCC00"/>
<path d="M16.4312 16.9929L14.5836 17.0018L14.5793 17.9374L16.4312 16.9929Z" fill="#FFCC00"/>
<path d="M16.4312 16.9884L14.929 18.1031L14.3887 17.3436L16.4312 16.9884Z" fill="#FFCC00"/>
<path d="M15.7583 19.1023L15.1895 17.3083L14.3054 17.6027L15.7583 19.1023Z" fill="#FFCC00"/>
<path d="M15.7559 19.1049L14.2601 17.9974L14.8068 17.2305L15.7559 19.1049Z" fill="#FFCC00"/>
<path d="M12.9087 16.9929L14.7562 17.0018L14.7605 17.9374L12.9087 16.9929Z" fill="#FFCC00"/>
<path d="M12.9087 16.9884L14.4108 18.1031L14.9511 17.3436L12.9087 16.9884Z" fill="#FFCC00"/>
<path d="M13.5815 19.1023L14.1504 17.3083L15.0344 17.6027L13.5815 19.1023Z" fill="#FFCC00"/>
<path d="M13.584 19.1049L15.0797 17.9974L14.533 17.2305L13.584 19.1049Z" fill="#FFCC00"/>
<path d="M19.1396 9.28967L20.6353 8.18232L20.0885 7.41534L19.1396 9.28967Z" fill="#FFCC00"/>
<path d="M19.1372 9.28711L19.7059 7.49328L20.5901 7.78774L19.1372 9.28711Z" fill="#FFCC00"/>
<path d="M18.4644 7.17542L19.9647 8.2881L20.5068 7.52645L18.4644 7.17542Z" fill="#FFCC00"/>
<path d="M18.4644 7.17786L20.3139 7.18265L20.3162 8.1223L18.4644 7.17786Z" fill="#FFCC00"/>
<path d="M20.2222 5.87268L19.6535 7.66651L20.5377 7.96097L20.2222 5.87268Z" fill="#FFCC00"/>
<path d="M20.2222 5.87268L20.798 7.67173L19.921 7.96097L20.2222 5.87268Z" fill="#FFCC00"/>
<path d="M21.3154 9.28955L19.8149 8.17667L20.3569 7.41522L21.3154 9.28955Z" fill="#FFCC00"/>
<path d="M21.3135 9.29187L20.738 7.49307L19.8606 7.78257L21.3135 9.29187Z" fill="#FFCC00"/>
<path d="M21.9863 7.17981L20.4899 8.2881L19.9439 7.52206L21.9863 7.17981Z" fill="#FFCC00"/>
<path d="M21.9844 7.18176L20.1344 7.17787L20.1363 8.11842L21.9844 7.18176Z" fill="#FFCC00"/>
<path d="M17.2471 13.4354L16.6784 11.6416L15.7942 11.9361L17.2471 13.4354Z" fill="#FFCC00"/>
<path d="M17.2441 13.4381L15.7485 12.3308L16.2953 11.5638L17.2441 13.4381Z" fill="#FFCC00"/>
<path d="M15.0684 13.4379L16.5689 12.325L16.0269 11.5635L15.0684 13.4379Z" fill="#FFCC00"/>
<path d="M15.0703 13.4402L15.6458 11.6414L16.5232 11.9309L15.0703 13.4402Z" fill="#FFCC00"/>
<path d="M14.3975 11.3281L15.8939 12.4364L16.4399 11.6704L14.3975 11.3281Z" fill="#FFCC00"/>
<path d="M14.3994 11.3301L16.2494 11.3262L16.2475 12.2667L14.3994 11.3301Z" fill="#FFCC00"/>
<path d="M17.9194 11.3237L16.4191 12.4364L15.877 11.6748L17.9194 11.3237Z" fill="#FFCC00"/>
<path d="M17.9194 11.3262L16.0699 11.331L16.0676 12.2706L17.9194 11.3262Z" fill="#FFCC00"/>
<path d="M16.1616 10.021L16.7303 11.8148L15.8461 12.1093L16.1616 10.021Z" fill="#FFCC00"/>
<path d="M16.1616 10.021L15.5858 11.82L16.4628 12.1093L16.1616 10.021Z" fill="#FFCC00"/>
<path d="M17.9199 22.6594L16.0742 22.6719L16.0681 23.6039L17.9199 22.6594Z" fill="#FFCC00"/>
<path d="M17.9199 22.6531L16.4162 23.7697L15.8775 23.0119L17.9199 22.6531Z" fill="#FFCC00"/>
<path d="M17.2471 24.7646L16.6841 22.9749L15.7942 23.2735L17.2471 24.7646Z" fill="#FFCC00"/>
<path d="M17.2407 24.7714L15.7491 23.6686L16.2999 22.897L17.2407 24.7714Z" fill="#FFCC00"/>
<path d="M15.0659 24.7714L16.5681 23.6565L16.0279 22.897L15.0659 24.7714Z" fill="#FFCC00"/>
<path d="M15.0698 24.7755L15.6477 22.9749L16.5227 23.2626L15.0698 24.7755Z" fill="#FFCC00"/>
<path d="M16.1665 21.3544L16.731 23.1451L15.8426 23.4427L16.1665 21.3544Z" fill="#FFCC00"/>
<path d="M16.166 21.3544L15.5861 23.1566L16.459 23.4427L16.166 21.3544Z" fill="#FFCC00"/>
<path d="M14.3999 22.6646L16.2494 22.6595L16.2471 23.599L14.3999 22.6646Z" fill="#FFCC00"/>
<path d="M14.3975 22.6621L15.8935 23.7698L16.4399 23.0032L14.3975 22.6621Z" fill="#FFCC00"/>
<path d="M21.9868 26.8077L20.141 26.8202L20.135 27.7522L21.9868 26.8077Z" fill="#FFCC00"/>
<path d="M21.9868 26.8014L20.4831 27.918L19.9444 27.1602L21.9868 26.8014Z" fill="#FFCC00"/>
<path d="M21.314 28.913L20.7509 27.1232L19.8611 27.4218L21.314 28.913Z" fill="#FFCC00"/>
<path d="M21.3076 28.9197L19.816 27.8169L20.3668 27.0453L21.3076 28.9197Z" fill="#FFCC00"/>
<path d="M19.1328 28.9197L20.635 27.8048L20.0948 27.0453L19.1328 28.9197Z" fill="#FFCC00"/>
<path d="M19.1367 28.9238L19.7146 27.1232L20.5896 27.4109L19.1367 28.9238Z" fill="#FFCC00"/>
<path d="M20.2334 25.5027L20.7979 27.2934L19.9095 27.591L20.2334 25.5027Z" fill="#FFCC00"/>
<path d="M20.2329 25.5027L19.653 27.3049L20.5259 27.591L20.2329 25.5027Z" fill="#FFCC00"/>
<path d="M18.4668 26.8129L20.3163 26.8078L20.314 27.7473L18.4668 26.8129Z" fill="#FFCC00"/>
<path d="M18.4644 26.8104L19.9604 27.9181L20.5068 27.1515L18.4644 26.8104Z" fill="#FFCC00"/>
<path d="M36.8926 15.6877L37.4648 17.4842L36.5842 17.776L36.8926 15.6877Z" fill="#FFCC00"/>
<path d="M36.8926 15.6877L36.3203 17.4842L37.2009 17.776L36.8926 15.6877Z" fill="#FFCC00"/>
<path d="M35.1309 16.9929L36.9784 17.0018L36.9827 17.9374L35.1309 16.9929Z" fill="#FFCC00"/>
<path d="M35.1309 16.9884L36.633 18.1031L37.1733 17.3436L35.1309 16.9884Z" fill="#FFCC00"/>
<path d="M35.8037 19.1023L36.3725 17.3083L37.2566 17.6027L35.8037 19.1023Z" fill="#FFCC00"/>
<path d="M35.8062 19.1049L37.3019 17.9974L36.7552 17.2305L35.8062 19.1049Z" fill="#FFCC00"/>
<path d="M38.6533 16.9929L36.8058 17.0018L36.8015 17.9374L38.6533 16.9929Z" fill="#FFCC00"/>
<path d="M38.6533 16.9884L37.1512 18.1031L36.6109 17.3436L38.6533 16.9884Z" fill="#FFCC00"/>
<path d="M37.9805 19.1023L37.4117 17.3083L36.5276 17.6027L37.9805 19.1023Z" fill="#FFCC00"/>
<path d="M37.978 19.1049L36.4823 17.9974L37.029 17.2305L37.978 19.1049Z" fill="#FFCC00"/>
<path d="M32.4224 9.28967L30.9267 8.18232L31.4736 7.41534L32.4224 9.28967Z" fill="#FFCC00"/>
<path d="M32.4248 9.28711L31.8562 7.49328L30.9719 7.78774L32.4248 9.28711Z" fill="#FFCC00"/>
<path d="M33.0977 7.17542L31.5973 8.2881L31.0552 7.52645L33.0977 7.17542Z" fill="#FFCC00"/>
<path d="M33.0977 7.17786L31.2482 7.18265L31.2458 8.1223L33.0977 7.17786Z" fill="#FFCC00"/>
<path d="M31.3398 5.87268L31.9085 7.66651L31.0243 7.96097L31.3398 5.87268Z" fill="#FFCC00"/>
<path d="M31.3398 5.87268L30.764 7.67173L31.641 7.96097L31.3398 5.87268Z" fill="#FFCC00"/>
<path d="M30.2466 9.28955L31.7471 8.17667L31.2051 7.41522L30.2466 9.28955Z" fill="#FFCC00"/>
<path d="M30.2485 9.29187L30.824 7.49307L31.7014 7.78257L30.2485 9.29187Z" fill="#FFCC00"/>
<path d="M29.5757 7.17981L31.0721 8.2881L31.6181 7.52206L29.5757 7.17981Z" fill="#FFCC00"/>
<path d="M29.5776 7.18176L31.4276 7.17787L31.4257 8.11842L29.5776 7.18176Z" fill="#FFCC00"/>
<path d="M34.3149 13.4354L34.8836 11.6416L35.7678 11.9361L34.3149 13.4354Z" fill="#FFCC00"/>
<path d="M34.3179 13.4381L35.8135 12.3308L35.2667 11.5638L34.3179 13.4381Z" fill="#FFCC00"/>
<path d="M36.4937 13.4379L34.9932 12.325L35.5351 11.5635L36.4937 13.4379Z" fill="#FFCC00"/>
<path d="M36.4917 13.4402L35.9162 11.6414L35.0388 11.9309L36.4917 13.4402Z" fill="#FFCC00"/>
<path d="M37.1646 11.3281L35.6681 12.4364L35.1221 11.6704L37.1646 11.3281Z" fill="#FFCC00"/>
<path d="M37.1626 11.3301L35.3126 11.3262L35.3145 12.2667L37.1626 11.3301Z" fill="#FFCC00"/>
<path d="M33.6426 11.3237L35.1429 12.4364L35.685 11.6748L33.6426 11.3237Z" fill="#FFCC00"/>
<path d="M33.6426 11.3262L35.4921 11.331L35.4944 12.2706L33.6426 11.3262Z" fill="#FFCC00"/>
<path d="M35.4004 10.021L34.8317 11.8148L35.7159 12.1093L35.4004 10.021Z" fill="#FFCC00"/>
<path d="M35.4004 10.021L35.9762 11.82L35.0992 12.1093L35.4004 10.021Z" fill="#FFCC00"/>
<path d="M33.6421 22.6594L35.4879 22.6719L35.4939 23.6039L33.6421 22.6594Z" fill="#FFCC00"/>
<path d="M33.6421 22.6531L35.1458 23.7697L35.6845 23.0119L33.6421 22.6531Z" fill="#FFCC00"/>
<path d="M34.3149 24.7646L34.878 22.9749L35.7678 23.2735L34.3149 24.7646Z" fill="#FFCC00"/>
<path d="M34.3213 24.7714L35.8129 23.6686L35.2621 22.897L34.3213 24.7714Z" fill="#FFCC00"/>
<path d="M36.4961 24.7714L34.9939 23.6565L35.5341 22.897L36.4961 24.7714Z" fill="#FFCC00"/>
<path d="M36.4922 24.7755L35.9143 22.9749L35.0393 23.2626L36.4922 24.7755Z" fill="#FFCC00"/>
<path d="M35.3955 21.3544L34.831 23.1451L35.7194 23.4427L35.3955 21.3544Z" fill="#FFCC00"/>
<path d="M35.396 21.3544L35.9759 23.1566L35.103 23.4427L35.396 21.3544Z" fill="#FFCC00"/>
<path d="M37.1621 22.6646L35.3126 22.6595L35.3149 23.599L37.1621 22.6646Z" fill="#FFCC00"/>
<path d="M37.1646 22.6621L35.6685 23.7698L35.1221 23.0032L37.1646 22.6621Z" fill="#FFCC00"/>
<path d="M29.5752 26.8077L31.421 26.8202L31.427 27.7522L29.5752 26.8077Z" fill="#FFCC00"/>
<path d="M29.5752 26.8014L31.0789 27.918L31.6176 27.1602L29.5752 26.8014Z" fill="#FFCC00"/>
<path d="M30.248 28.913L30.8111 27.1232L31.7009 27.4218L30.248 28.913Z" fill="#FFCC00"/>
<path d="M30.2544 28.9197L31.746 27.8169L31.1952 27.0453L30.2544 28.9197Z" fill="#FFCC00"/>
<path d="M32.4292 28.9197L30.927 27.8048L31.4672 27.0453L32.4292 28.9197Z" fill="#FFCC00"/>
<path d="M32.4253 28.9238L31.8474 27.1232L30.9724 27.4109L32.4253 28.9238Z" fill="#FFCC00"/>
<path d="M31.3286 25.5027L30.7641 27.2934L31.6525 27.591L31.3286 25.5027Z" fill="#FFCC00"/>
<path d="M31.3291 25.5027L31.909 27.3049L31.0361 27.591L31.3291 25.5027Z" fill="#FFCC00"/>
<path d="M33.0952 26.8129L31.2457 26.8078L31.248 27.7473L33.0952 26.8129Z" fill="#FFCC00"/>
<path d="M33.0977 26.8104L31.6016 27.9181L31.0552 27.1515L33.0977 26.8104Z" fill="#FFCC00"/>
</g>
<defs>
<clipPath id="clip0_35_1367">
<rect width="50" height="34" fill="white" transform="translate(0.780762 0.576538)"/>
</clipPath>
</defs>
</svg>
