<svg width="52" height="35" viewBox="0 0 52 35" fill="none" xmlns="http://www.w3.org/2000/svg">
<g clip-path="url(#clip0_35_1954)">
<path d="M65.3963 0.460999H0.780762V34.4692H65.3963V0.460999Z" fill="#B22234"/>
<path d="M0.780762 4.38501H65.3963H0.780762ZM65.3963 9.61704H0.780762H65.3963ZM0.780762 14.8491H65.3963H0.780762ZM65.3963 20.0811H0.780762H65.3963ZM0.780762 25.3131H65.3963H0.780762ZM65.3963 30.5451H0.780762H65.3963Z" fill="black"/>
<path d="M0.780762 4.38501H65.3963M65.3963 9.61704H0.780762M0.780762 14.8491H65.3963M65.3963 20.0811H0.780762M0.780762 25.3131H65.3963M65.3963 30.5451H0.780762" stroke="white" stroke-width="2.61601"/>
<path d="M26.627 0.460999H0.780762V18.7731H26.627V0.460999Z" fill="#3C3B6E"/>
<path d="M2.93464 1.24582L3.54971 3.13878L1.93945 1.96887H3.92983L2.31958 3.13878L2.93464 1.24582Z" fill="white"/>
<path d="M2.93464 4.90823L3.54971 6.8012L1.93945 5.63128H3.92983L2.31958 6.8012L2.93464 4.90823Z" fill="white"/>
<path d="M2.93464 8.57065L3.54971 10.4636L1.93945 9.2937H3.92983L2.31958 10.4636L2.93464 8.57065Z" fill="white"/>
<path d="M2.93464 12.2331L3.54971 14.126L1.93945 12.9561H3.92983L2.31958 14.126L2.93464 12.2331Z" fill="white"/>
<path d="M2.93464 15.8955L3.54971 17.7884L1.93945 16.6185H3.92983L2.31958 17.7884L2.93464 15.8955Z" fill="white"/>
<path d="M5.08845 3.077L5.70351 4.96996L4.09326 3.80004H6.08364L4.47339 4.96996L5.08845 3.077Z" fill="white"/>
<path d="M5.08845 6.73944L5.70351 8.63241L4.09326 7.46249H6.08364L4.47339 8.63241L5.08845 6.73944Z" fill="white"/>
<path d="M5.08845 10.4019L5.70351 12.2948L4.09326 11.1249H6.08364L4.47339 12.2948L5.08845 10.4019Z" fill="white"/>
<path d="M5.08845 14.0643L5.70351 15.9572L4.09326 14.7873H6.08364L4.47339 15.9572L5.08845 14.0643Z" fill="white"/>
<path d="M7.24226 1.24582L7.85732 3.13878L6.24707 1.96887H8.23745L6.6272 3.13878L7.24226 1.24582Z" fill="white"/>
<path d="M7.24226 4.90823L7.85732 6.8012L6.24707 5.63128H8.23745L6.6272 6.8012L7.24226 4.90823Z" fill="white"/>
<path d="M7.24226 8.57065L7.85732 10.4636L6.24707 9.2937H8.23745L6.6272 10.4636L7.24226 8.57065Z" fill="white"/>
<path d="M7.24226 12.2331L7.85732 14.126L6.24707 12.9561H8.23745L6.6272 14.126L7.24226 12.2331Z" fill="white"/>
<path d="M7.24226 15.8955L7.85732 17.7884L6.24707 16.6185H8.23745L6.6272 17.7884L7.24226 15.8955Z" fill="white"/>
<path d="M9.39607 3.077L10.0111 4.96996L8.40088 3.80004H10.3913L8.78101 4.96996L9.39607 3.077Z" fill="white"/>
<path d="M9.39607 6.73944L10.0111 8.63241L8.40088 7.46249H10.3913L8.78101 8.63241L9.39607 6.73944Z" fill="white"/>
<path d="M9.39607 10.4019L10.0111 12.2948L8.40088 11.1249H10.3913L8.78101 12.2948L9.39607 10.4019Z" fill="white"/>
<path d="M9.39607 14.0643L10.0111 15.9572L8.40088 14.7873H10.3913L8.78101 15.9572L9.39607 14.0643Z" fill="white"/>
<path d="M11.5499 1.24582L12.1649 3.13878L10.5547 1.96887H12.5451L10.9348 3.13878L11.5499 1.24582Z" fill="white"/>
<path d="M11.5499 4.90823L12.1649 6.8012L10.5547 5.63128H12.5451L10.9348 6.8012L11.5499 4.90823Z" fill="white"/>
<path d="M11.5499 8.57065L12.1649 10.4636L10.5547 9.2937H12.5451L10.9348 10.4636L11.5499 8.57065Z" fill="white"/>
<path d="M11.5499 12.2331L12.1649 14.126L10.5547 12.9561H12.5451L10.9348 14.126L11.5499 12.2331Z" fill="white"/>
<path d="M11.5499 15.8955L12.1649 17.7884L10.5547 16.6185H12.5451L10.9348 17.7884L11.5499 15.8955Z" fill="white"/>
<path d="M13.7037 3.077L14.3187 4.96996L12.7085 3.80004H14.6989L13.0886 4.96996L13.7037 3.077Z" fill="white"/>
<path d="M13.7037 6.73944L14.3187 8.63241L12.7085 7.46249H14.6989L13.0886 8.63241L13.7037 6.73944Z" fill="white"/>
<path d="M13.7037 10.4019L14.3187 12.2948L12.7085 11.1249H14.6989L13.0886 12.2948L13.7037 10.4019Z" fill="white"/>
<path d="M13.7037 14.0643L14.3187 15.9572L12.7085 14.7873H14.6989L13.0886 15.9572L13.7037 14.0643Z" fill="white"/>
<path d="M15.8575 1.24582L16.4726 3.13878L14.8623 1.96887H16.8527L15.2424 3.13878L15.8575 1.24582Z" fill="white"/>
<path d="M15.8575 4.90823L16.4726 6.8012L14.8623 5.63128H16.8527L15.2424 6.8012L15.8575 4.90823Z" fill="white"/>
<path d="M15.8575 8.57065L16.4726 10.4636L14.8623 9.2937H16.8527L15.2424 10.4636L15.8575 8.57065Z" fill="white"/>
<path d="M15.8575 12.2331L16.4726 14.126L14.8623 12.9561H16.8527L15.2424 14.126L15.8575 12.2331Z" fill="white"/>
<path d="M15.8575 15.8955L16.4726 17.7884L14.8623 16.6185H16.8527L15.2424 17.7884L15.8575 15.8955Z" fill="white"/>
<path d="M18.0113 3.077L18.6264 4.96996L17.0161 3.80004H19.0065L17.3962 4.96996L18.0113 3.077Z" fill="white"/>
<path d="M18.0113 6.73944L18.6264 8.63241L17.0161 7.46249H19.0065L17.3962 8.63241L18.0113 6.73944Z" fill="white"/>
<path d="M18.0113 10.4019L18.6264 12.2948L17.0161 11.1249H19.0065L17.3962 12.2948L18.0113 10.4019Z" fill="white"/>
<path d="M18.0113 14.0643L18.6264 15.9572L17.0161 14.7873H19.0065L17.3962 15.9572L18.0113 14.0643Z" fill="white"/>
<path d="M20.1656 1.24582L20.7807 3.13878L19.1704 1.96887H21.1608L19.5505 3.13878L20.1656 1.24582Z" fill="white"/>
<path d="M20.1656 4.90823L20.7807 6.8012L19.1704 5.63128H21.1608L19.5505 6.8012L20.1656 4.90823Z" fill="white"/>
<path d="M20.1656 8.57065L20.7807 10.4636L19.1704 9.2937H21.1608L19.5505 10.4636L20.1656 8.57065Z" fill="white"/>
<path d="M20.1656 12.2331L20.7807 14.126L19.1704 12.9561H21.1608L19.5505 14.126L20.1656 12.2331Z" fill="white"/>
<path d="M20.1656 15.8955L20.7807 17.7884L19.1704 16.6185H21.1608L19.5505 17.7884L20.1656 15.8955Z" fill="white"/>
<path d="M22.3194 3.077L22.9345 4.96996L21.3242 3.80004H23.3146L21.7043 4.96996L22.3194 3.077Z" fill="white"/>
<path d="M22.3194 6.73944L22.9345 8.63241L21.3242 7.46249H23.3146L21.7043 8.63241L22.3194 6.73944Z" fill="white"/>
<path d="M22.3194 10.4019L22.9345 12.2948L21.3242 11.1249H23.3146L21.7043 12.2948L22.3194 10.4019Z" fill="white"/>
<path d="M22.3194 14.0643L22.9345 15.9572L21.3242 14.7873H23.3146L21.7043 15.9572L22.3194 14.0643Z" fill="white"/>
<path d="M24.4732 1.24582L25.0883 3.13878L23.478 1.96887H25.4684L23.8582 3.13878L24.4732 1.24582Z" fill="white"/>
<path d="M24.4732 4.90823L25.0883 6.8012L23.478 5.63128H25.4684L23.8582 6.8012L24.4732 4.90823Z" fill="white"/>
<path d="M24.4732 8.57065L25.0883 10.4636L23.478 9.2937H25.4684L23.8582 10.4636L24.4732 8.57065Z" fill="white"/>
<path d="M24.4732 12.2331L25.0883 14.126L23.478 12.9561H25.4684L23.8582 14.126L24.4732 12.2331Z" fill="white"/>
<path d="M24.4732 15.8955L25.0883 17.7884L23.478 16.6185H25.4684L23.8582 17.7884L24.4732 15.8955Z" fill="white"/>
</g>
<defs>
<clipPath id="clip0_35_1954">
<rect width="51.0123" height="34.0082" fill="white" transform="translate(0.780762 0.460999)"/>
</clipPath>
</defs>
</svg>
