<svg width="17" height="17" viewBox="0 0 17 17" fill="none" xmlns="http://www.w3.org/2000/svg">
<path d="M16.1262 3.0498L16.8532 2.32276C15.5809 1.05046 13.9451 0.414307 12.3093 0.414307C10.6734 0.414307 9.03762 1.05046 7.76531 2.32276L8.49235 3.0498C9.58289 2.05013 10.9461 1.50485 12.3093 1.50485C13.6724 1.50485 15.0356 2.05013 16.1262 3.0498ZM15.3083 3.77683C14.4904 2.95892 13.3998 2.50452 12.3093 2.50452C11.2187 2.50452 10.1282 2.95892 9.31026 3.77683L10.0373 4.50386C10.6734 3.86771 11.4914 3.59507 12.3093 3.59507C13.1272 3.59507 13.9451 3.86771 14.5812 4.50386L15.3083 3.77683ZM15.0356 9.5022H13.2181V5.86705H11.4005V9.5022H2.31257C1.31291 9.5022 0.494995 10.3201 0.494995 11.3198V14.9549C0.494995 15.9546 1.31291 16.7725 2.31257 16.7725H15.0356C16.0353 16.7725 16.8532 15.9546 16.8532 14.9549V11.3198C16.8532 10.3201 16.0353 9.5022 15.0356 9.5022ZM5.03894 14.0462H3.22136V12.2286H5.03894V14.0462ZM8.21971 14.0462H6.40213V12.2286H8.21971V14.0462ZM11.4005 14.0462H9.58289V12.2286H11.4005V14.0462Z" fill="#BDBDBD"/>
</svg>
