<?xml version="1.0" encoding="UTF-8"?>
<svg version="1.1" viewBox="0 0 1200 1200" xmlns="http://www.w3.org/2000/svg">
 <path d="m1161.6 583.2-200.4-154.8c-14.398-10.801-33.602-1.1992-33.602 16.801l0.003906 82.801h-128.4v-201.6c0-94.801-76.801-172.8-172.8-172.8h-240c-94.801 0-172.8 76.801-172.8 172.8l0.003906 201.6h-162c-12 0-21.602 9.6016-21.602 21.602v102c0 12 9.6016 21.602 21.602 21.602h164.4v201.6c0 94.801 76.801 172.8 172.8 172.8h240c94.801 0 172.8-76.801 172.8-172.8v-202.8h127.2v82.801c0 18 20.398 27.602 33.602 16.801l200.4-154.8c9.5977-8.4023 9.5977-25.199-1.1992-33.602zm-460.8 290.4c0 40.801-32.398 73.199-73.199 73.199h-240c-40.801 0-73.199-32.398-73.199-73.199l-0.003906-201.6h290.4l0.003906-144h-290.4v-201.6c0-40.801 32.398-73.199 73.199-73.199h240c40.801 0 73.199 32.398 73.199 73.199z"/>
</svg>
