<svg width="12" height="11" viewBox="0 0 12 11" fill="none" xmlns="http://www.w3.org/2000/svg">
<path fill-rule="evenodd" clip-rule="evenodd" d="M1.41026 8.09032C1.41026 8.86039 2.03453 9.48466 2.8046 9.48466C3.57468 9.48466 4.19894 8.86039 4.19894 8.09032C4.19894 7.32025 3.57468 6.69598 2.8046 6.69598C2.03453 6.69598 1.41026 7.32025 1.41026 8.09032ZM0.874023 8.09032C0.874023 9.15655 1.73837 10.0209 2.8046 10.0209C3.87083 10.0209 4.73518 9.15655 4.73518 8.09032C4.73518 7.02409 3.87083 6.15974 2.8046 6.15974C1.73837 6.15974 0.874023 7.02409 0.874023 8.09032Z" fill="#878787"/>
<path fill-rule="evenodd" clip-rule="evenodd" d="M8.14849 6.49302C7.42785 7.41965 6.30526 7.8222 4.62856 7.8222V8.35844C6.38483 8.35844 7.70645 7.93491 8.57179 6.82222C9.42233 5.72856 9.78512 4.02451 9.78512 1.58522L9.24888 1.58522C9.24888 3.99886 8.88393 5.54737 8.14849 6.49302Z" fill="#878787"/>
<path fill-rule="evenodd" clip-rule="evenodd" d="M7.62111 1.95573L9.32742 0.249429C9.43212 0.144722 9.60189 0.144722 9.70659 0.249429L11.4129 1.95573C11.5176 2.06044 11.5176 2.2302 11.4129 2.33491C11.3082 2.43962 11.1384 2.43962 11.0337 2.33491L9.78512 1.08632L9.78512 1.58522L9.24888 1.58522L9.24889 1.08632L8.00029 2.33491C7.89558 2.43962 7.72582 2.43962 7.62111 2.33491C7.51641 2.2302 7.51641 2.06044 7.62111 1.95573Z" fill="#878787"/>
</svg>
