<svg width="145" height="36" viewBox="0 0 145 36" xmlns="http://www.w3.org/2000/svg">
    <g fill="none">
        <path d="M52.1 12.7c0-.5.1-.8.3-1.1.1-.3.4-.6.7-.8.2-.1.6-.3.9-.3.4-.1.8-.1 1.1-.1.7 0 1.2 0 1.5.1.4 0 .7.2 1 .4.2.3.4.6.6 1.1.1.5.3 1.1.4 1.9l1.2 6.8v.3c0 .1.1.2.1.4 0 .1.1.2.1.3 0 .1.1.1.1.1s.1 0 .1-.1c.1-.1.1-.2.1-.3 0-.2.1-.3.1-.4 0-.1.1-.2.1-.2l1.1-6.9c.1-.8.2-1.5.4-1.9.1-.5.3-.9.6-1.1.2-.2.6-.4 1-.4.3-.1.9-.1 1.5-.1.9 0 1.6.1 2.2.5.6.3.8.9.8 1.7v12.3c0 .1 0 .2-.2.2h-2.6c-.2 0-.3-.1-.3-.2V13.5c0-.1 0-.1-.1-.1h-.2c0 .1 0 .1-.1.2v.2c0 .1-.1.2-.1.3v.3c-.1.1-.1.2-.1.3-.1.3-.2.7-.2 1-.1.4-.2.9-.4 1.5-.1.7-.3 1.5-.5 2.4-.2 1-.5 2.2-.8 3.7-.1.2-.1.5-.2.7-.1.2-.3.3-.4.5-.2.2-.5.3-.8.4-.3.1-.6.2-1.1.2-.4 0-.8-.1-1-.2-.3-.1-.5-.2-.7-.3-.1-.2-.3-.3-.4-.5 0-.2-.1-.4-.1-.5l-2.2-9.8s0-.1-.1-.2c0-.2 0-.2-.1-.3h-.1c-.1 0-.1.1-.1.2v11.4c0 .1-.1.2-.2.2h-2.7c-.1 0-.2-.1-.2-.2V12.7zm20 .8c0-.9.2-1.7.8-2.3.5-.6 1.2-.8 2.2-.8h7.3c.2 0 .3 0 .3.2v2.2c0 .2-.1.2-.2.2h-7.1c-.2 0-.2.1-.2.2V16c0 .2 0 .2.2.2h6.5c.2 0 .3.1.3.2v2.4c0 .1-.1.2-.3.2h-6.5c-.2 0-.2.1-.2.2v3c0 .1 0 .2.2.2h7.1c.1 0 .2.1.2.2v2.3c0 .1-.1.2-.2.2h-8.3c-.3 0-.5-.1-.8-.2-.2-.2-.5-.3-.7-.5-.2-.2-.3-.5-.5-.7-.1-.3-.1-.5-.1-.8v-9.4zm14.3-.1c0-.6 0-1 .1-1.4.1-.4.3-.7.6-.9.2-.3.5-.5.9-.6.4-.1.9-.1 1.6-.1.9 0 1.5.1 1.9.4.4.2.7.6.8 1.1L95.2 22c0 .2.1.2.2.2s.2 0 .2-.2V10.6c0-.2 0-.2.2-.2h2.7c.1 0 .2 0 .2.2v12.1c0 .3-.1.6-.2.8-.1.3-.3.6-.5.8-.2.2-.4.4-.6.5-.3.2-.6.3-.9.3h-2c-.1 0-.3-.1-.5-.2s-.4-.2-.5-.3c-.2-.2-.4-.3-.5-.5l-.3-.6-2.9-10.2c0-.1-.1-.1-.2-.1s-.1 0-.1.1v11.6c0 .1-.1.2-.2.2h-2.7c-.1 0-.2-.1-.2-.2V13.4zm16.2 11.5V10.6c0-.2.1-.2.2-.2h7.3c.8 0 1.5.1 2.1.4.6.3 1.1.7 1.5 1.2.4.5.7 1 .8 1.6.2.6.3 1.3.3 1.9v4.9c0 .5-.1 1.1-.3 1.6-.1.6-.4 1.1-.8 1.5-.4.5-.9.9-1.5 1.1-.5.3-1.2.5-2.1.5h-7.3c-.1 0-.2-.1-.2-.2zm3.1-2.7c0 .1.1.2.2.2h3.9c.2 0 .4-.1.6-.2.3-.1.5-.2.7-.4.2-.2.3-.4.4-.6.1-.3.2-.5.2-.7V15c0-.2-.1-.5-.2-.7-.1-.3-.3-.5-.5-.7-.2-.1-.4-.3-.7-.4-.2-.1-.5-.2-.7-.2h-3.7c-.1 0-.2.1-.2.2v9zm12.9-8.7c0-.9.2-1.7.7-2.3.6-.6 1.3-.8 2.3-.8h7.3c.2 0 .3 0 .3.2v2.2c0 .2-.1.2-.3.2h-7c-.2 0-.2.1-.2.2V16c0 .2 0 .2.2.2h6.5c.2 0 .2.1.2.2v2.4c0 .1 0 .2-.2.2h-6.5c-.2 0-.2.1-.2.2v3c0 .1 0 .2.2.2h7c.2 0 .3.1.3.2v2.3c0 .1-.1.2-.3.2h-8.2c-.3 0-.5-.1-.8-.2-.3-.2-.5-.3-.7-.5-.2-.2-.3-.5-.5-.7-.1-.3-.1-.5-.1-.8v-9.4zm14.6-3.1h7.9c.4 0 .8 0 1.2.2.4.1.8.4 1.1.8.7.6 1 1.6 1.1 2.9v.4c0 1.2-.2 2.1-.5 2.7-.2.2-.4.5-.6.7-.2.2-.5.5-.9.6v.1c-.1 0-.1.1-.1.1v.1c.4.4.6.8.7 1.1.2.3.3.6.4.9l1.2 3.5c0 .1.1.2.2.3 0 .1.1.1.1.2 0 0-.1.1-.2.1h-2.9c-.1 0-.2-.1-.3-.2-.1-.2-.2-.3-.2-.4l-1.3-3.6c-.2-.8-.6-1.2-1.2-1.3h-2.6c-.2 0-.3.1-.3.2v5.1c0 .1 0 .2-.2.2h-2.6c-.2 0-.3-.1-.3-.2V10.6c0-.2.1-.2.3-.2zm3.1 2.6c-.2 0-.3.1-.3.2v3.4c0 .1.1.2.3.2h3.9c.2 0 .4-.1.6-.3.2-.2.4-.4.5-.7.1-.3.1-.7.1-1.1v-.5c0-.2-.1-.3-.1-.4-.3-.5-.5-.7-.8-.8h-4.2z" fill="#404041"/>
        <path d="M10.1 30.4c0 2.8-2.3 5-5.1 5-2.7 0-5-2.2-5-5s2.3-5.1 5-5.1c2.8 0 5.1 2.3 5.1 5.1m9.4-5.1c-2.8 0-5 2.3-5 5.1s2.2 5 5 5 5.1-2.2 5.1-5-2.3-5.1-5.1-5.1m0-25.3c-2.8 0-5 2.3-5 5 0 2.8 2.2 5.1 5 5.1s5.1-2.3 5.1-5.1c0-2.7-2.3-5-5.1-5M34 25.3c-2.8 0-5.1 2.3-5.1 5.1s2.3 5 5.1 5 5-2.2 5-5-2.2-5.1-5-5.1" fill="#015969"/>
        <path d="M35.7 13.1V9.8c2-.7 3.3-2.6 3.3-4.8 0-2.7-2.2-5-5-5s-5.1 2.3-5.1 5c0 .5.1 1 .2 1.4L22 13.5c-.7-.4-1.6-.7-2.5-.7-1 0-1.9.3-2.7.8l-7-7c.2-.5.3-1 .3-1.6 0-2.7-2.3-5-5.1-5-2.7 0-5 2.3-5 5 0 2.2 1.4 4.1 3.3 4.8v3.3c-1.9.8-3.3 2.6-3.3 4.8 0 2.8 2.3 5 5 5 2.8 0 5.1-2.2 5.1-5 0-2.2-1.4-4-3.3-4.8V9.8c.3-.1.6-.3.8-.4l7.1 7c-.2.5-.2 1-.2 1.5 0 2.8 2.2 5 5 5s5.1-2.2 5.1-5c0-.6-.1-1.2-.3-1.7l6.9-6.9c.4.2.7.3 1 .5v3.3c-1.9.8-3.3 2.6-3.3 4.8 0 2.8 2.3 5 5.1 5s5-2.2 5-5c0-2.2-1.3-4-3.3-4.8" fill="#5D0F43"/>
    </g>
</svg>
