<svg width="165" height="217" viewBox="0 0 165 217" fill="none" xmlns="http://www.w3.org/2000/svg">
<line x1="127.085" y1="8.76978" x2="143.946" y2="8.76978" stroke="#E8F1F3" stroke-width="4"/>
<line x1="135.623" y1="16.7698" x2="135.623" y2="0.769775" stroke="#E8F1F3" stroke-width="4"/>
<line x1="127.085" y1="48.7698" x2="143.946" y2="48.7698" stroke="#E8F1F3" stroke-width="4"/>
<line x1="135.623" y1="56.7698" x2="135.623" y2="40.7698" stroke="#E8F1F3" stroke-width="4"/>
<line x1="84.9316" y1="48.7698" x2="101.793" y2="48.7698" stroke="#E8F1F3" stroke-width="4"/>
<line x1="93.4697" y1="56.7698" x2="93.4697" y2="40.7698" stroke="#E8F1F3" stroke-width="4"/>
<line x1="127.085" y1="88.7698" x2="143.946" y2="88.7698" stroke="#E8F1F3" stroke-width="4"/>
<line x1="135.623" y1="96.7698" x2="135.623" y2="80.7698" stroke="#E8F1F3" stroke-width="4"/>
<line x1="84.9316" y1="88.7698" x2="101.793" y2="88.7698" stroke="#E8F1F3" stroke-width="4"/>
<line x1="93.4697" y1="96.7698" x2="93.4697" y2="80.7698" stroke="#E8F1F3" stroke-width="4"/>
<line x1="84.9316" y1="8.76978" x2="101.793" y2="8.76978" stroke="#E8F1F3" stroke-width="4"/>
<line x1="93.4697" y1="16.7698" x2="93.4697" y2="0.769775" stroke="#E8F1F3" stroke-width="4"/>
<line x1="127.085" y1="128.77" x2="143.946" y2="128.77" stroke="#E8F1F3" stroke-width="4"/>
<line x1="135.623" y1="136.77" x2="135.623" y2="120.77" stroke="#E8F1F3" stroke-width="4"/>
<line x1="127.085" y1="168.77" x2="143.946" y2="168.77" stroke="#E8F1F3" stroke-width="4"/>
<line x1="135.623" y1="176.77" x2="135.623" y2="160.77" stroke="#E8F1F3" stroke-width="4"/>
<line x1="84.9316" y1="168.77" x2="101.793" y2="168.77" stroke="#E8F1F3" stroke-width="4"/>
<line x1="93.4697" y1="176.77" x2="93.4697" y2="160.77" stroke="#E8F1F3" stroke-width="4"/>
<line x1="127.085" y1="208.77" x2="143.946" y2="208.77" stroke="#E8F1F3" stroke-width="4"/>
<line x1="135.623" y1="216.77" x2="135.623" y2="200.77" stroke="#E8F1F3" stroke-width="4"/>
<line x1="84.9316" y1="208.77" x2="101.793" y2="208.77" stroke="#E8F1F3" stroke-width="4"/>
<line x1="93.4697" y1="216.77" x2="93.4697" y2="200.77" stroke="#E8F1F3" stroke-width="4"/>
<line x1="84.9316" y1="128.77" x2="101.793" y2="128.77" stroke="#E8F1F3" stroke-width="4"/>
<line x1="93.4697" y1="136.77" x2="93.4697" y2="120.77" stroke="#E8F1F3" stroke-width="4"/>
<line x1="42.7788" y1="8.76978" x2="59.6401" y2="8.76978" stroke="#E8F1F3" stroke-width="4"/>
<line x1="51.3169" y1="16.7698" x2="51.3169" y2="0.769775" stroke="#E8F1F3" stroke-width="4"/>
<line x1="42.7788" y1="48.7698" x2="59.6401" y2="48.7698" stroke="#E8F1F3" stroke-width="4"/>
<line x1="51.3169" y1="56.7698" x2="51.3169" y2="40.7698" stroke="#E8F1F3" stroke-width="4"/>
<line x1="0.625488" y1="48.7698" x2="17.4868" y2="48.7698" stroke="#E8F1F3" stroke-width="4"/>
<line x1="9.16357" y1="56.7698" x2="9.16357" y2="40.7698" stroke="#E8F1F3" stroke-width="4"/>
<line x1="42.7788" y1="88.7698" x2="59.6401" y2="88.7698" stroke="#E8F1F3" stroke-width="4"/>
<line x1="51.3169" y1="96.7698" x2="51.3169" y2="80.7698" stroke="#E8F1F3" stroke-width="4"/>
<line x1="0.625488" y1="88.7698" x2="17.4868" y2="88.7698" stroke="#E8F1F3" stroke-width="4"/>
<line x1="9.16357" y1="96.7698" x2="9.16357" y2="80.7698" stroke="#E8F1F3" stroke-width="4"/>
<line x1="0.625488" y1="8.76978" x2="17.4868" y2="8.76978" stroke="#E8F1F3" stroke-width="4"/>
<line x1="9.16357" y1="16.7698" x2="9.16357" y2="0.769775" stroke="#E8F1F3" stroke-width="4"/>
<line x1="42.7788" y1="128.77" x2="59.6401" y2="128.77" stroke="#E8F1F3" stroke-width="4"/>
<line x1="51.3169" y1="136.77" x2="51.3169" y2="120.77" stroke="#E8F1F3" stroke-width="4"/>
<line x1="42.7788" y1="168.77" x2="59.6401" y2="168.77" stroke="#E8F1F3" stroke-width="4"/>
<line x1="51.3169" y1="176.77" x2="51.3169" y2="160.77" stroke="#E8F1F3" stroke-width="4"/>
<line x1="0.625488" y1="168.77" x2="17.4868" y2="168.77" stroke="#E8F1F3" stroke-width="4"/>
<line x1="9.16357" y1="176.77" x2="9.16357" y2="160.77" stroke="#E8F1F3" stroke-width="4"/>
<line x1="42.7788" y1="208.77" x2="59.6401" y2="208.77" stroke="#E8F1F3" stroke-width="4"/>
<line x1="51.3169" y1="216.77" x2="51.3169" y2="200.77" stroke="#E8F1F3" stroke-width="4"/>
<line x1="0.625488" y1="208.77" x2="17.4868" y2="208.77" stroke="#E8F1F3" stroke-width="4"/>
<line x1="9.16357" y1="216.77" x2="9.16357" y2="200.77" stroke="#E8F1F3" stroke-width="4"/>
<line x1="0.625488" y1="128.77" x2="17.4868" y2="128.77" stroke="#E8F1F3" stroke-width="4"/>
<line x1="9.16357" y1="136.77" x2="9.16357" y2="120.77" stroke="#E8F1F3" stroke-width="4"/>
</svg>
