<svg width="11" height="11" viewBox="0 0 11 11" fill="none" xmlns="http://www.w3.org/2000/svg">
<g clip-path="url(#clip0_20_487)">
<path d="M9.16351 4.84271C9.16351 7.86932 5.27215 10.4636 5.27215 10.4636C5.27215 10.4636 1.3808 7.86932 1.3808 4.84271C1.3808 3.81066 1.79078 2.82088 2.52055 2.09111C3.25032 1.36134 4.2401 0.951355 5.27215 0.951355C6.3042 0.951355 7.29398 1.36134 8.02376 2.09111C8.75353 2.82088 9.16351 3.81066 9.16351 4.84271Z" stroke="#347A87" stroke-width="1.1792" stroke-linecap="round" stroke-linejoin="round"/>
<path d="M5.27215 6.13982C5.98853 6.13982 6.56927 5.55908 6.56927 4.8427C6.56927 4.12633 5.98853 3.54559 5.27215 3.54559C4.55578 3.54559 3.97504 4.12633 3.97504 4.8427C3.97504 5.55908 4.55578 6.13982 5.27215 6.13982Z" stroke="#347A87" stroke-width="1.1792" stroke-linecap="round" stroke-linejoin="round"/>
</g>
<defs>
<clipPath id="clip0_20_487">
<rect width="10.3769" height="10.3769" fill="white" transform="translate(0.0836792 0.518982)"/>
</clipPath>
</defs>
</svg>
